<svg width="877" height="204" viewBox="0 0 877 204" fill="none" xmlns="http://www.w3.org/2000/svg">
<path d="M110.555 30.6074C115.364 25.7975 123.16 25.7975 127.969 30.6074L188.918 91.5696C193.726 96.3795 193.726 104.178 188.918 108.987L127.969 169.95C123.16 174.76 115.364 174.76 110.555 169.95L49.6065 108.987C44.7978 104.178 44.7978 96.3795 49.6065 91.5696L110.555 30.6074Z" fill="url(#paint0_linear_16_38)"/>
<path d="M71.5549 30.6073C76.3638 25.7976 84.1601 25.7976 88.9689 30.6074L149.918 91.5697C154.726 96.3796 154.726 104.178 149.918 108.988L88.9689 169.95C84.1601 174.76 76.3638 174.76 71.5549 169.95L10.6065 108.988C5.79782 104.178 5.79782 96.3796 10.6065 91.5697L71.5549 30.6073Z" fill="url(#paint1_linear_16_38)"/>
<path d="M228.044 54.262C229.332 54.262 230.666 54.63 232.046 55.366C233.518 56.01 234.622 56.884 235.358 57.988L268.892 109.6L261.992 109.324L296.354 57.988C298.102 55.504 300.356 54.262 303.116 54.262C305.324 54.262 307.302 55.044 309.05 56.608C310.798 58.172 311.672 60.196 311.672 62.68V142.582C311.672 144.974 310.89 146.998 309.326 148.654C307.762 150.218 305.692 151 303.116 151C300.54 151 298.424 150.218 296.768 148.654C295.204 146.998 294.422 144.974 294.422 142.582V77.584L299.804 78.826L271.652 121.744C270.824 122.756 269.766 123.63 268.478 124.366C267.282 125.102 266.04 125.424 264.752 125.332C263.556 125.424 262.314 125.102 261.026 124.366C259.83 123.63 258.818 122.756 257.99 121.744L231.632 80.068L235.22 72.754V142.582C235.22 144.974 234.484 146.998 233.012 148.654C231.54 150.218 229.608 151 227.216 151C224.916 151 223.03 150.218 221.558 148.654C220.086 146.998 219.35 144.974 219.35 142.582V62.68C219.35 60.38 220.178 58.402 221.834 56.746C223.582 55.09 225.652 54.262 228.044 54.262ZM385.824 77.17C388.216 77.17 390.194 77.998 391.758 79.654C393.322 81.218 394.104 83.196 394.104 85.588V144.238C394.104 152.702 392.494 159.418 389.274 164.386C386.146 169.446 381.914 173.08 376.578 175.288C371.242 177.496 365.262 178.6 358.638 178.6C355.694 178.6 352.566 178.37 349.254 177.91C345.942 177.45 343.228 176.76 341.112 175.84C338.352 174.644 336.42 173.126 335.316 171.286C334.304 169.538 334.12 167.652 334.764 165.628C335.592 162.96 336.926 161.12 338.766 160.108C340.606 159.188 342.538 159.096 344.562 159.832C346.034 160.292 347.966 160.982 350.358 161.902C352.75 162.914 355.51 163.42 358.638 163.42C362.87 163.42 366.366 162.822 369.126 161.626C371.978 160.522 374.094 158.59 375.474 155.83C376.946 153.162 377.682 149.482 377.682 144.79V135.544L380.58 138.856C379.016 141.892 377.038 144.422 374.646 146.446C372.346 148.378 369.586 149.85 366.366 150.862C363.146 151.874 359.466 152.38 355.326 152.38C350.45 152.38 346.172 151.276 342.492 149.068C338.904 146.768 336.098 143.64 334.074 139.684C332.05 135.636 331.038 131.036 331.038 125.884V85.588C331.038 83.196 331.82 81.218 333.384 79.654C334.948 77.998 336.926 77.17 339.318 77.17C341.71 77.17 343.688 77.998 345.252 79.654C346.816 81.218 347.598 83.196 347.598 85.588V120.916C347.598 126.896 348.886 131.128 351.462 133.612C354.13 136.004 357.81 137.2 362.502 137.2C365.722 137.2 368.436 136.602 370.644 135.406C372.852 134.118 374.554 132.278 375.75 129.886C376.946 127.402 377.544 124.412 377.544 120.916V85.588C377.544 83.196 378.326 81.218 379.89 79.654C381.454 77.998 383.432 77.17 385.824 77.17ZM456.607 54.4C465.439 54.4 472.017 56.47 476.341 60.61C480.665 64.75 482.827 70.868 482.827 78.964C482.827 83.288 481.769 87.106 479.653 90.418C477.537 93.638 474.409 96.168 470.269 98.008C466.129 99.756 461.023 100.63 454.951 100.63L455.503 94.42C458.355 94.42 461.621 94.834 465.301 95.662C468.981 96.398 472.523 97.778 475.926 99.802C479.423 101.734 482.275 104.494 484.483 108.082C486.783 111.578 487.933 116.086 487.933 121.606C487.933 127.678 486.921 132.646 484.897 136.51C482.965 140.374 480.389 143.364 477.169 145.48C473.949 147.596 470.499 149.068 466.819 149.896C463.139 150.632 459.597 151 456.193 151H421.831C419.439 151 417.415 150.218 415.759 148.654C414.195 146.998 413.413 144.974 413.413 142.582V62.818C413.413 60.426 414.195 58.448 415.759 56.884C417.415 55.228 419.439 54.4 421.831 54.4H456.607ZM454.123 70.684H429.559L431.353 68.476V93.454L429.697 92.212H454.537C457.205 92.212 459.597 91.338 461.713 89.59C463.829 87.842 464.887 85.312 464.887 82C464.887 78.044 463.875 75.192 461.851 73.444C459.919 71.604 457.343 70.684 454.123 70.684ZM455.227 108.496H430.111L431.353 107.392V136.51L429.973 135.13H456.193C460.425 135.13 463.783 134.026 466.267 131.818C468.751 129.518 469.993 126.114 469.993 121.606C469.993 117.466 469.165 114.476 467.509 112.636C465.853 110.796 463.875 109.646 461.575 109.186C459.275 108.726 457.159 108.496 455.227 108.496ZM518.054 142.582C518.054 144.974 517.272 146.998 515.708 148.654C514.144 150.218 512.166 151 509.774 151C507.382 151 505.404 150.218 503.84 148.654C502.276 146.998 501.494 144.974 501.494 142.582V85.588C501.494 83.196 502.276 81.218 503.84 79.654C505.404 77.998 507.382 77.17 509.774 77.17C512.166 77.17 514.144 77.998 515.708 79.654C517.272 81.218 518.054 83.196 518.054 85.588V142.582ZM509.636 68.2C506.508 68.2 504.3 67.694 503.012 66.682C501.724 65.67 501.08 63.876 501.08 61.3V58.678C501.08 56.01 501.77 54.216 503.15 53.296C504.622 52.284 506.83 51.778 509.774 51.778C512.994 51.778 515.248 52.284 516.536 53.296C517.824 54.308 518.468 56.102 518.468 58.678V61.3C518.468 63.968 517.778 65.808 516.398 66.82C515.018 67.74 512.764 68.2 509.636 68.2ZM582.132 135.82C584.34 135.82 586.18 136.556 587.652 138.028C589.124 139.408 589.86 141.202 589.86 143.41C589.86 145.526 589.124 147.32 587.652 148.792C586.18 150.264 584.34 151 582.132 151H537.696C535.396 151 533.556 150.172 532.176 148.516C530.796 146.86 530.152 145.204 530.244 143.548C530.336 142.168 530.52 140.972 530.796 139.96C531.072 138.856 531.762 137.614 532.866 136.234L567.228 91.798L566.952 93.73H538.938C536.73 93.73 534.89 92.994 533.418 91.522C531.946 90.05 531.21 88.21 531.21 86.002C531.21 83.886 531.946 82.138 533.418 80.758C534.89 79.286 536.73 78.55 538.938 78.55H581.442C583.558 78.55 585.352 79.332 586.824 80.896C588.296 82.46 588.94 84.438 588.756 86.83C588.664 87.75 588.48 88.67 588.204 89.59C588.02 90.51 587.422 91.614 586.41 92.902L552.6 136.648V135.82H582.132ZM638.763 76.066L608.955 146.17C608.311 147.918 607.299 149.298 605.919 150.31C604.631 151.23 603.205 151.69 601.641 151.69C599.157 151.69 597.317 151 596.121 149.62C594.925 148.24 594.327 146.538 594.327 144.514C594.327 143.686 594.465 142.812 594.741 141.892L629.103 59.368C629.839 57.528 630.943 56.102 632.415 55.09C633.979 54.078 635.635 53.664 637.383 53.848C639.039 53.848 640.557 54.354 641.937 55.366C643.409 56.286 644.467 57.62 645.111 59.368L679.059 140.236C679.519 141.432 679.749 142.536 679.749 143.548C679.749 146.032 678.921 148.01 677.265 149.482C675.701 150.954 673.953 151.69 672.021 151.69C670.365 151.69 668.847 151.184 667.467 150.172C666.179 149.16 665.167 147.78 664.431 146.032L634.761 76.894L638.763 76.066ZM613.233 129.334L620.823 113.464H658.083L660.705 129.334H613.233ZM728.28 75.79C734.72 75.79 740.47 77.446 745.53 80.758C750.682 83.978 754.73 88.44 757.674 94.144C760.71 99.848 762.228 106.472 762.228 114.016C762.228 121.56 760.71 128.23 757.674 134.026C754.73 139.73 750.728 144.238 745.668 147.55C740.7 150.77 735.088 152.38 728.832 152.38C725.152 152.38 721.702 151.782 718.482 150.586C715.262 149.39 712.41 147.872 709.926 146.032C707.534 144.192 705.648 142.352 704.268 140.512C702.98 138.58 702.336 136.97 702.336 135.682L706.614 133.888V170.182C706.614 172.574 705.832 174.552 704.268 176.116C702.704 177.772 700.726 178.6 698.334 178.6C695.942 178.6 693.964 177.818 692.4 176.254C690.836 174.69 690.054 172.666 690.054 170.182V85.588C690.054 83.196 690.836 81.218 692.4 79.654C693.964 77.998 695.942 77.17 698.334 77.17C700.726 77.17 702.704 77.998 704.268 79.654C705.832 81.218 706.614 83.196 706.614 85.588V92.35L704.268 91.108C704.268 89.912 704.912 88.486 706.2 86.83C707.488 85.082 709.236 83.38 711.444 81.724C713.652 79.976 716.182 78.55 719.034 77.446C721.978 76.342 725.06 75.79 728.28 75.79ZM726.21 90.97C722.162 90.97 718.62 91.982 715.584 94.006C712.548 96.03 710.156 98.79 708.408 102.286C706.752 105.69 705.924 109.6 705.924 114.016C705.924 118.34 706.752 122.296 708.408 125.884C710.156 129.38 712.548 132.14 715.584 134.164C718.62 136.188 722.162 137.2 726.21 137.2C730.258 137.2 733.754 136.188 736.698 134.164C739.734 132.14 742.08 129.38 743.736 125.884C745.484 122.296 746.358 118.34 746.358 114.016C746.358 109.6 745.484 105.69 743.736 102.286C742.08 98.79 739.734 96.03 736.698 94.006C733.754 91.982 730.258 90.97 726.21 90.97ZM814.934 75.79C821.374 75.79 827.124 77.446 832.184 80.758C837.336 83.978 841.384 88.44 844.328 94.144C847.364 99.848 848.882 106.472 848.882 114.016C848.882 121.56 847.364 128.23 844.328 134.026C841.384 139.73 837.382 144.238 832.322 147.55C827.354 150.77 821.742 152.38 815.486 152.38C811.806 152.38 808.356 151.782 805.136 150.586C801.916 149.39 799.064 147.872 796.58 146.032C794.188 144.192 792.302 142.352 790.922 140.512C789.634 138.58 788.99 136.97 788.99 135.682L793.268 133.888V170.182C793.268 172.574 792.486 174.552 790.922 176.116C789.358 177.772 787.38 178.6 784.988 178.6C782.596 178.6 780.618 177.818 779.054 176.254C777.49 174.69 776.708 172.666 776.708 170.182V85.588C776.708 83.196 777.49 81.218 779.054 79.654C780.618 77.998 782.596 77.17 784.988 77.17C787.38 77.17 789.358 77.998 790.922 79.654C792.486 81.218 793.268 83.196 793.268 85.588V92.35L790.922 91.108C790.922 89.912 791.566 88.486 792.854 86.83C794.142 85.082 795.89 83.38 798.098 81.724C800.306 79.976 802.836 78.55 805.688 77.446C808.632 76.342 811.714 75.79 814.934 75.79ZM812.864 90.97C808.816 90.97 805.274 91.982 802.238 94.006C799.202 96.03 796.81 98.79 795.062 102.286C793.406 105.69 792.578 109.6 792.578 114.016C792.578 118.34 793.406 122.296 795.062 125.884C796.81 129.38 799.202 132.14 802.238 134.164C805.274 136.188 808.816 137.2 812.864 137.2C816.912 137.2 820.408 136.188 823.352 134.164C826.388 132.14 828.734 129.38 830.39 125.884C832.138 122.296 833.012 118.34 833.012 114.016C833.012 109.6 832.138 105.69 830.39 102.286C828.734 98.79 826.388 96.03 823.352 94.006C820.408 91.982 816.912 90.97 812.864 90.97Z" fill="#FFFEFE"/>
<defs>
<linearGradient id="paint0_linear_16_38" x1="78.6276" y1="59.0189" x2="158.683" y2="139.056" gradientUnits="userSpaceOnUse">
<stop stop-color="#4A6CF7" stop-opacity="0"/>
<stop offset="1" stop-color="#4A6CF7"/>
</linearGradient>
<linearGradient id="paint1_linear_16_38" x1="39.6275" y1="59.0192" x2="119.683" y2="139.056" gradientUnits="userSpaceOnUse">
<stop stop-color="#4A6CF7"/>
<stop offset="1" stop-color="#4A6CF7" stop-opacity="0"/>
</linearGradient>
</defs>
</svg>
